M48
METRIC,LZ,000.000
;FILE_FORMAT=3:3
;TYPE=PLATED
;Layer: PTH_Through_Via
;EasyEDA v6.5.42, 2024-06-06 15:11:34
;747d3a1ba2664cf59a20e4d60a0d89bc,449d0d4cb6024136a387a2ed91670e05,10
;Gerber Generator version 0.2
;Holesize 1 = 0.306 mm
T01C0.306
;Holesize 2 = 0.310 mm
T02C0.310
%
G05
G90
T01
X019765Y033400
X045100Y028700
X032400Y013500
X045165Y013600
X019800Y013500
X007200Y014700
X006604Y020193
X007200Y017100
X009600Y032900
X009600Y029500
X009600Y030500
X057865Y034200
X046355Y023495
X046355Y037592
X017854Y017800
X017854Y020739
X029900Y017800
X029900Y020600
X027400Y017800
X027400Y020600
X024800Y017800
X024800Y020600
X022306Y017854
X022306Y020605
T02
X028170Y035560
X028170Y023495
X029170Y035560
X030170Y035560
X031170Y035560
X032170Y035560
X029170Y023495
X030170Y023495
X031170Y023495
X032170Y023495
X014605Y034925
X012065Y025908
X013335Y025273
X015113Y024765
X007112Y025908
X006350Y025273
X005588Y024638
X034170Y039000
X032004Y024384
X034290Y024384
M30
