M48
METRIC,LZ,000.000
;FILE_FORMAT=3:3
;TYPE=PLATED
;Layer: PTH_Through
;EasyEDA v6.5.42, 2024-06-06 15:11:34
;747d3a1ba2664cf59a20e4d60a0d89bc,449d0d4cb6024136a387a2ed91670e05,10
;Gerber Generator version 0.2
;Holesize 1 = 0.306 mm
T01C0.306
;Holesize 2 = 0.310 mm
T02C0.310
;Holesize 3 = 0.850 mm
T03C0.850
;Holesize 4 = 0.900 mm
T04C0.900
;Holesize 5 = 1.101 mm
T05C1.101
%
G05
G90
T01
X019765Y033400
X045100Y028700
X032400Y013500
X045165Y013600
X019800Y013500
X007200Y014700
X006604Y020193
X007200Y017100
X009600Y032900
X009600Y029500
X009600Y030500
X057865Y034200
X046355Y023495
X046355Y037592
X017854Y017800
X017854Y020739
X029900Y017800
X029900Y020600
X027400Y017800
X027400Y020600
X024800Y017800
X024800Y020600
X022306Y017854
X022306Y020605
T02
X028170Y035560
X028170Y023495
X029170Y035560
X030170Y035560
X031170Y035560
X032170Y035560
X029170Y023495
X030170Y023495
X031170Y023495
X032170Y023495
X014605Y034925
X012065Y025908
X013335Y025273
X015113Y024765
X007112Y025908
X006350Y025273
X005588Y024638
X034170Y039000
X032004Y024384
X034290Y024384
T03
X062865Y029848G85X062865Y029842
X060325Y029848G85X060325Y029842
X057785Y029848G85X057785Y029842
X055245Y029848G85X055245Y029842
X052705Y029848G85X052705Y029842
X050165Y029848G85X050165Y029842
X047625Y029848G85X047625Y029842
X042545Y029848G85X042545Y029842
X040005Y029848G85X040005Y029842
X037465Y029848G85X037465Y029842
X034925Y029848G85X034925Y029842
X029845Y029848G85X029845Y029842
X027305Y029848G85X027305Y029842
X024765Y029848G85X024765Y029842
X022225Y029848G85X022225Y029842
X017145Y029848G85X017145Y029842
X014806Y023495G85X014811Y023495
X014806Y018415G85X014811Y018415
X014605Y012062G85X014605Y012068
X017145Y012062G85X017145Y012068
X022225Y012062G85X022225Y012068
X024765Y012062G85X024765Y012068
X027305Y012062G85X027305Y012068
X029845Y012062G85X029845Y012068
X034925Y012062G85X034925Y012068
X037465Y012062G85X037465Y012068
X040005Y012062G85X040005Y012068
X042545Y012062G85X042545Y012068
X047625Y012062G85X047625Y012068
X050168Y012065G85X050162Y012065
X052705Y012062G85X052705Y012068
X055245Y012062G85X055245Y012068
X060325Y012062G85X060325Y012068
X062865Y012062G85X062865Y012068
X014605Y029848G85X014605Y029842
X045085Y029848G85X045085Y029842
X032385Y029848G85X032385Y029842
X019685Y029848G85X019685Y029842
X019685Y012062G85X019685Y012068
X032385Y012062G85X032385Y012068
X045085Y012062G85X045085Y012068
X057785Y012062G85X057785Y012068
X014806Y020955G85X014811Y020955
T04
X011430Y034925
X011430Y042545
T05
X054610Y039370
X052070Y039370
M30
